<?xml version="1.0" standalone="no"?>
<!DOCTYPE svg PUBLIC "-//W3C//DTD SVG 20010904//EN"
 "http://www.w3.org/TR/2001/REC-SVG-20010904/DTD/svg10.dtd">
<svg version="1.0" xmlns="http://www.w3.org/2000/svg"
 width="884.000000pt" height="178.000000pt" viewBox="0 0 884.000000 178.000000"
 preserveAspectRatio="xMidYMid meet">

<g transform="translate(0.000000,178.000000) scale(0.100000,-0.100000)"
fill="#fff" stroke="none">
<path d="M37 1673 c-4 -3 -7 -226 -7 -494 0 -435 2 -488 16 -493 9 -3 440 -6
960 -6 l944 0 5 23 c3 12 4 236 3 497 l-3 475 -956 3 c-525 1 -959 -1 -962 -5z
m1883 -488 l0 -465 -60 0 -60 0 0 63 c0 59 2 64 29 80 38 23 81 74 81 97 0 24
-114 194 -143 215 -12 8 -42 15 -67 15 -35 1 -41 3 -27 11 51 30 62 122 19
170 -40 45 -106 52 -150 14 -59 -50 -59 -127 0 -177 l32 -28 -33 0 c-19 0 -59
-15 -97 -36 l-65 -36 -44 41 c-24 22 -50 39 -57 36 -8 -3 -44 42 -92 116 -84
127 -92 137 -107 122 -5 -5 26 -61 76 -135 82 -124 84 -126 63 -140 -21 -14
-21 -15 22 -87 24 -41 58 -89 76 -108 35 -36 55 -38 117 -6 16 8 31 13 33 11
2 -2 1 -57 -3 -121 l-6 -117 -474 0 -473 0 0 64 c0 49 -4 65 -16 70 -9 3 -110
6 -225 6 l-209 0 0 388 c0 214 3 392 7 395 3 4 422 7 930 7 l923 0 0 -465z
m-277 184 c48 -22 62 -92 25 -126 -58 -53 -138 -18 -138 61 0 25 16 49 45 64
26 14 38 15 68 1z m119 -236 c29 -33 78 -104 102 -151 16 -32 16 -33 -10 -57
-27 -25 -110 -75 -125 -75 -4 0 -11 9 -14 21 -5 16 2 30 29 58 20 20 36 43 36
51 0 24 -65 94 -79 86 -8 -5 -3 -19 19 -49 l30 -41 -42 -43 -42 -43 22 -46
c13 -27 28 -44 35 -41 49 20 47 22 47 -32 l0 -51 -135 0 -135 0 0 135 c0 104
-3 137 -13 141 -8 3 -38 -4 -67 -16 -29 -12 -59 -19 -67 -16 -7 3 -36 40 -63
82 -49 76 -50 77 -30 91 23 16 22 16 88 -39 l32 -28 68 38 c59 33 78 38 157
43 50 3 99 6 111 7 11 1 32 -10 46 -25z m-1282 -363 l0 -50 -210 0 -210 0 0
50 0 50 210 0 210 0 0 -50z"/>
<path d="M2420 870 l0 -530 50 0 50 0 2 463 3 464 320 -461 320 -461 63 -3 62
-3 0 531 0 530 -45 0 -45 0 0 -460 c0 -253 -3 -460 -7 -459 -5 0 -150 206
-324 457 l-316 457 -67 3 -66 3 0 -531z"/>
<path d="M7684 1362 c-52 -34 -24 -122 39 -122 22 0 55 32 62 60 11 47 -59 90
-101 62z"/>
<path d="M5490 1130 l0 -100 -76 0 -75 0 3 -37 3 -38 72 -3 71 -3 4 -252 c3
-282 7 -297 79 -345 30 -21 43 -23 117 -20 45 3 87 9 92 14 5 5 7 26 4 46 -6
34 -8 36 -31 27 -13 -5 -46 -9 -72 -9 -38 0 -52 5 -72 26 -24 25 -24 27 -27
270 l-3 244 100 0 101 0 0 40 0 40 -100 0 -100 0 0 100 0 100 -45 0 -45 0 0
-100z"/>
<path d="M3765 1037 c-63 -21 -97 -42 -142 -89 -83 -86 -118 -213 -93 -340 22
-114 84 -199 178 -245 52 -26 66 -28 172 -28 129 0 163 12 240 82 46 41 48 52
17 81 -30 28 -33 28 -62 -6 -13 -16 -52 -41 -85 -56 -153 -69 -321 -1 -365
148 -28 94 -54 86 275 86 l290 0 0 40 c0 50 -18 137 -37 173 -25 49 -85 108
-137 134 -61 32 -186 41 -251 20z m189 -88 c80 -29 146 -114 146 -186 0 -10
-56 -13 -245 -13 l-245 0 6 28 c9 37 47 102 77 130 33 31 113 61 164 62 23 0
67 -9 97 -21z"/>
<path d="M6154 1036 c-72 -24 -121 -54 -159 -98 -51 -60 -73 -105 -85 -182
-27 -168 49 -325 189 -393 51 -25 66 -28 166 -28 101 0 114 2 163 28 112 59
170 137 192 257 29 161 -48 323 -186 391 -57 28 -79 33 -153 36 -52 1 -102 -3
-127 -11z m234 -96 c192 -84 199 -403 11 -500 -48 -25 -125 -37 -181 -29 -205
31 -296 289 -163 463 70 92 211 120 333 66z"/>
<path d="M7078 1041 c-43 -14 -94 -48 -126 -86 -17 -18 -33 -31 -36 -28 -3 4
-6 28 -6 55 l0 48 -46 0 -47 0 7 -61 c3 -34 6 -190 6 -345 l0 -284 44 0 45 0
3 223 c3 219 3 223 31 277 45 91 128 137 230 127 59 -5 95 -30 122 -83 18 -35
20 -62 23 -291 l3 -253 45 0 45 0 -3 263 c-3 248 -4 265 -26 312 -28 62 -47
82 -97 108 -44 23 -170 33 -217 18z"/>
<path d="M4300 1020 c0 -10 126 -417 192 -618 l20 -63 45 3 46 3 95 278 c52
153 98 274 102 270 4 -4 49 -123 100 -263 51 -140 97 -263 102 -272 6 -13 21
-18 52 -18 l42 0 98 331 c54 183 100 338 103 345 4 11 -6 14 -40 14 -35 0 -47
-4 -51 -17 -3 -10 -37 -130 -76 -268 -38 -137 -74 -259 -78 -269 -6 -14 -35
56 -109 265 l-100 284 -44 3 -44 3 -95 -285 c-52 -157 -97 -283 -100 -280 -3
3 -41 130 -86 282 l-80 277 -47 3 c-30 2 -47 -1 -47 -8z"/>
<path d="M7680 685 l0 -345 40 0 40 0 0 345 0 345 -40 0 -40 0 0 -345z"/>
<path d="M7960 1024 c0 -3 47 -65 103 -137 57 -73 110 -142 117 -153 13 -21
-21 -70 -263 -381 -7 -10 3 -13 45 -13 l54 0 114 155 c63 85 118 154 121 155
3 0 60 -70 125 -155 l119 -155 53 0 c28 0 52 3 52 8 0 4 -63 87 -140 184 -77
98 -140 181 -140 186 0 5 52 75 115 156 63 82 115 150 115 152 0 2 -24 4 -53
4 l-53 0 -88 -120 c-48 -65 -91 -122 -96 -125 -5 -3 -51 51 -102 120 l-92 125
-53 0 c-29 0 -53 -3 -53 -6z"/>
<path d="M202 429 c-61 -13 -102 -71 -102 -145 0 -24 -8 -46 -25 -66 -37 -43
-50 -103 -30 -134 8 -13 19 -25 23 -25 35 -7 340 -4 349 3 7 6 19 6 30 0 10
-5 92 -8 183 -6 91 2 173 3 183 3 9 0 94 0 187 0 94 0 179 0 190 0 11 0 97 0
190 0 94 0 178 0 188 0 9 1 93 -1 186 -3 154 -3 171 -1 188 16 35 35 10 144
-38 162 -12 5 -14 15 -9 48 11 76 -56 149 -138 150 -80 2 -137 -57 -137 -142
-1 -33 -7 -52 -25 -73 l-25 -28 -30 30 c-26 26 -30 35 -24 68 4 30 1 45 -18
72 -36 53 -69 73 -122 73 -81 0 -136 -57 -136 -142 -1 -33 -7 -52 -26 -74
l-25 -28 -27 28 c-22 24 -27 38 -27 79 0 82 -56 137 -141 137 -79 0 -134 -58
-134 -142 -1 -33 -7 -52 -25 -72 l-24 -27 -30 28 c-26 24 -29 33 -24 63 12 78
-56 150 -143 150 -79 0 -134 -58 -134 -142 -1 -33 -7 -52 -25 -72 l-24 -28
-30 30 c-25 25 -29 36 -24 64 14 88 -79 166 -175 145z m101 -49 c54 -43 52
-134 -4 -174 -37 -25 -101 -21 -132 9 -29 30 -42 82 -28 117 24 63 112 89 164
48z m380 0 c15 -12 31 -37 36 -57 36 -129 -153 -190 -200 -65 -36 96 84 184
164 122z m387 -10 c32 -34 40 -62 28 -107 -17 -66 -118 -98 -167 -52 -51 48
-54 108 -7 155 28 28 42 34 76 34 34 0 47 -6 70 -30z m381 -1 c23 -25 29 -40
29 -76 0 -116 -159 -145 -201 -36 -17 45 -10 74 25 109 28 28 42 34 76 34 34
0 47 -6 71 -31z m365 13 c42 -33 57 -99 34 -143 -14 -26 -62 -49 -103 -49 -65
0 -115 83 -88 148 23 56 112 81 157 44z m-1669 -192 c57 -44 130 -44 188 2
l28 22 23 -28 c28 -32 34 -96 9 -97 -8 0 -80 0 -160 0 -80 0 -149 0 -155 0
-18 2 -11 68 11 95 25 31 24 31 56 6z m380 0 c56 -44 140 -43 184 1 10 10 23
19 27 19 19 0 44 -41 49 -79 5 -33 3 -41 -11 -42 -9 0 -81 0 -161 0 -80 0
-149 0 -155 0 -19 2 -11 76 10 99 25 27 26 27 57 2z m380 0 c56 -44 140 -43
184 1 10 10 23 19 27 19 19 0 44 -41 49 -79 5 -35 3 -41 -13 -42 -55 -3 -315
-1 -319 2 -15 17 -7 73 15 97 25 27 26 27 57 2z m380 0 c56 -44 134 -44 181 0
11 11 25 20 30 20 19 0 44 -40 49 -79 5 -35 3 -41 -13 -42 -11 0 -86 -1 -168
-1 -160 0 -171 3 -159 52 8 32 32 70 45 70 5 0 21 -9 35 -20z m380 0 c56 -44
139 -44 178 0 26 28 42 25 65 -12 25 -42 27 -88 3 -89 -10 0 -85 -1 -167 -1
-159 0 -172 3 -161 51 7 30 34 71 47 71 5 0 21 -9 35 -20z"/>
</g>
</svg>
